<?xml version="1.0" encoding="UTF-8"?>
<svg version="1.1" xmlns="http://www.w3.org/2000/svg" width="512" height="512">
<path d="M0 0 C2.19095178 0.00564672 4.3818958 0.00846314 6.57285309 0.0110817 C27.76745869 0.0478994 48.67372924 0.54761108 69.71903229 3.31805801 C71.20245642 3.50324138 72.68602451 3.68727427 74.16971588 3.87030411 C121.13127405 9.69972374 167.36055364 18.38302859 202.71903229 52.31805801 C203.6123526 53.14821426 204.50567291 53.97837051 205.42606354 54.83368301 C241.83686014 89.66582969 248.92671972 140.71090167 254.71903229 188.31805801 C254.8047348 189.00524918 254.89043732 189.69244034 254.97873688 190.40045547 C260.39560834 234.03481896 260.28143583 280.70664766 254.71903229 324.31805801 C254.56277374 325.56081497 254.56277374 325.56081497 254.40335846 326.82867813 C247.58906839 380.74904705 237.93539287 434.26396471 192.51200104 469.84540176 C151.29459636 501.49176588 98.95677714 507.11493916 48.71903229 511.31805801 C47.6869313 511.40467697 46.65483032 511.49129593 45.59145355 511.5805397 C37.10033296 512.24385103 28.66002677 512.49148341 20.14481354 512.52118301 C18.78037738 512.52820497 17.41594155 512.53529179 16.05150604 512.54243851 C11.71151001 512.56185116 7.37156735 512.56687319 3.03153229 512.56805801 C2.29174889 512.56849987 1.55196548 512.56894173 0.7897644 512.56939697 C-21.71366929 512.57644608 -43.92608935 512.18808979 -66.28096771 509.31805801 C-67.78023706 509.13332869 -69.27958947 508.94927259 -70.77901459 508.76581192 C-124.68387489 502.11049573 -176.29587293 490.56297391 -212.28096771 446.31805801 C-243.3238957 405.06411643 -248.96122326 352.26900688 -253.28096771 302.31805801 C-253.36829666 301.3417392 -253.45562561 300.36542038 -253.54560089 299.35951614 C-254.22230233 291.31116719 -254.45511509 283.31853814 -254.48409271 275.24383926 C-254.49110703 273.93342667 -254.49812134 272.62301407 -254.50534821 271.272892 C-254.52477805 267.05877581 -254.52978339 262.84471447 -254.53096771 258.63055801 C-254.53140957 257.91213604 -254.53185143 257.19371407 -254.53230667 256.45352173 C-254.53936154 234.58453232 -254.08619945 213.04179412 -251.28096771 191.31805801 C-251.0957188 189.80436573 -250.91168961 188.29052379 -250.72872162 186.77655411 C-244.83724747 138.27441167 -237.04918477 92.10010707 -202.28096771 55.31805801 C-201.53460052 54.5072377 -200.78823334 53.69641739 -200.01924896 52.86102676 C-167.1176391 18.32793211 -119.40532883 10.46371437 -74.28096771 4.56805801 C-73.51095428 4.46682632 -72.74094086 4.36559464 -71.94759369 4.26129532 C-47.98657849 1.1514587 -24.1485133 -0.06324633 0 0 Z M-177.28096771 65.31805801 C-178.11112396 66.00383926 -178.94128021 66.68962051 -179.79659271 67.39618301 C-221.04667465 102.41983749 -225.29486804 164.06039601 -229.53096771 214.31805801 C-231.30325391 237.11870767 -231.78216844 259.85956022 -230.53096771 282.69305801 C-230.4880661 283.48186356 -230.44516449 284.2706691 -230.40096283 285.08337784 C-227.29607753 340.70632973 -222.68082043 406.92501818 -178.73604584 446.7169838 C-173.97247903 451.59499998 -173.97247903 451.59499998 -168.28096771 454.31805801 C-168.26694916 453.30159195 -168.26694916 453.30159195 -168.2526474 452.26459122 C-167.56197986 412.10769083 -157.51585467 377.784412 -128.06612396 349.16571426 C-100.55222587 323.972848 -62.76456237 311.97492181 -26.28096771 308.31805801 C-25.27807709 308.20719864 -24.27518646 308.09633926 -23.24190521 307.98212051 C28.58565654 303.22375877 86.07093412 311.77182796 127.33280182 345.64276505 C151.76991382 366.32846648 167.56400229 396.4080256 170.71903229 428.31805801 C171.29390339 436.97456219 171.53799921 445.64547345 171.71903229 454.31805801 C177.40994896 450.9835919 181.91438883 446.81388283 186.71903229 442.31805801 C187.4886026 441.61422989 188.25817291 440.91040176 189.05106354 440.18524551 C232.18884908 399.23834575 233.07891391 321.68131068 234.65457916 266.42767715 C234.90253395 254.46479797 234.59783761 242.57448502 233.96903229 230.63055801 C233.92613068 229.81435989 233.88322906 228.99816177 233.8390274 228.15723038 C230.79537199 171.82512531 226.61586376 106.15489135 182.31522369 65.71600723 C138.51305093 27.35393301 68.138147 24.87471756 12.71903229 23.31805801 C11.93802155 23.29469376 11.1570108 23.2713295 10.35233307 23.24725723 C-48.92293936 21.71947785 -130.68599306 24.37095908 -177.28096771 65.31805801 Z M-120.40596771 374.56805801 C-140.56774802 397.98173837 -146.94109923 429.15621059 -144.84346771 459.25555801 C-144.59634484 462.54660704 -144.32609304 465.18268204 -143.28096771 468.31805801 C-141.02044574 469.448319 -138.89858974 470.34586502 -136.53096771 471.19305801 C-135.80909271 471.45280411 -135.08721771 471.7125502 -134.34346771 471.98016739 C-94.99295617 485.665847 -49.65463072 488.38288386 -8.28096771 489.31805801 C-7.11573578 489.35092911 -7.11573578 489.35092911 -5.92696381 489.38446426 C37.37281805 490.50743246 108.9454231 491.59168187 146.71903229 468.31805801 C154.42686527 445.19455908 146.42161653 414.58564476 136.41825104 393.58758926 C122.05286637 365.54473976 96.04818591 348.49038247 66.80448151 338.99872208 C57.2264194 336.0285691 47.63283236 333.80919106 37.71903229 332.31805801 C36.96364166 332.20236465 36.20825104 332.0866713 35.42996979 331.96747208 C-18.83968777 324.11142629 -81.45097484 333.03125275 -120.40596771 374.56805801 Z " fill="#000000" transform="translate(254.28096771240234,-0.3180580139160156)"/>
<path d="M0 0 C21.85948922 17.58319435 35.08530055 40.99762711 39.4140625 68.64453125 C42.04985495 95.73462032 36.0094104 123.236152 19 145 C16.10416581 148.43711161 13.08613207 151.73357842 10 155 C9.37351562 155.6909375 8.74703125 156.381875 8.1015625 157.09375 C-9.26343206 175.55779485 -34.93234705 184.75558941 -59.76953125 186.22265625 C-88.83667178 186.88920085 -114.91347319 176.97304308 -136.09765625 157.11328125 C-156.09897495 137.97715168 -166.8459109 112.79542952 -168.12890625 85.23046875 C-168.71196343 56.19422112 -157.88691571 30.45826945 -138.2578125 9.33203125 C-126.44596661 -2.86809331 -112.21134227 -11.85276648 -96 -17 C-95.35466309 -17.20882812 -94.70932617 -17.41765625 -94.04443359 -17.6328125 C-62.05082773 -27.49861338 -26.22228562 -20.35051531 0 0 Z M-121.5390625 26.41015625 C-136.11426503 41.81178779 -143.64699411 61.5136341 -144.375 82.5625 C-143.53428378 106.65084723 -132.95641918 126.99203667 -115.59765625 143.25 C-98.7526757 157.60046596 -77.94237537 163.41318623 -56 162 C-33.61815497 159.19121115 -15.31079197 148.20529381 -0.75 131.3125 C8.58597228 119.03958645 14.98895032 103.41850757 16 88 C16.0515625 87.23171875 16.103125 86.4634375 16.15625 85.671875 C16.95403021 63.46699239 8.5806811 43.98569055 -5.6875 27.3125 C-20.56073769 11.5054143 -40.92805585 2.96890628 -62.4296875 1.96484375 C-85.17344194 2.18879757 -105.12186717 10.8264493 -121.5390625 26.41015625 Z " fill="#000000" transform="translate(320,105)"/>
</svg>
